<svg width="54" height="19" viewBox="0 0 54 19" fill="none" xmlns="http://www.w3.org/2000/svg">
<path d="M9.032 4.248C7.288 4.248 6.024 4.736 5.24 5.712C4.472 6.672 4.088 7.992 4.088 9.672C4.088 10.488 4.184 11.232 4.376 11.904C4.568 12.56 4.856 13.128 5.24 13.608C5.624 14.088 6.104 14.464 6.68 14.736C7.256 14.992 7.928 15.12 8.696 15.12C9.112 15.12 9.464 15.112 9.752 15.096C10.056 15.08 10.32 15.048 10.544 15V9.216H14.288V17.448C13.84 17.624 13.12 17.808 12.128 18C11.136 18.208 9.912 18.312 8.456 18.312C7.208 18.312 6.072 18.12 5.048 17.736C4.04 17.352 3.176 16.792 2.456 16.056C1.736 15.32 1.176 14.416 0.776 13.344C0.392 12.272 0.2 11.048 0.2 9.672C0.2 8.28 0.416 7.048 0.848 5.976C1.28 4.904 1.872 4 2.624 3.264C3.376 2.512 4.256 1.944 5.264 1.56C6.288 1.176 7.376 0.983999 8.528 0.983999C9.312 0.983999 10.016 1.04 10.64 1.152C11.28 1.248 11.824 1.368 12.272 1.512C12.736 1.64 13.112 1.776 13.4 1.92C13.704 2.064 13.92 2.176 14.048 2.256L12.968 5.256C12.456 4.984 11.864 4.752 11.192 4.56C10.536 4.352 9.816 4.248 9.032 4.248ZM25.8836 4.248C24.1396 4.248 22.8756 4.736 22.0916 5.712C21.3236 6.672 20.9396 7.992 20.9396 9.672C20.9396 10.488 21.0356 11.232 21.2276 11.904C21.4196 12.56 21.7076 13.128 22.0916 13.608C22.4756 14.088 22.9556 14.464 23.5316 14.736C24.1076 14.992 24.7796 15.12 25.5476 15.12C25.9636 15.12 26.3156 15.112 26.6036 15.096C26.9076 15.08 27.1716 15.048 27.3956 15V9.216H31.1396V17.448C30.6916 17.624 29.9716 17.808 28.9796 18C27.9876 18.208 26.7636 18.312 25.3076 18.312C24.0596 18.312 22.9236 18.12 21.8996 17.736C20.8916 17.352 20.0276 16.792 19.3076 16.056C18.5876 15.32 18.0276 14.416 17.6276 13.344C17.2436 12.272 17.0516 11.048 17.0516 9.672C17.0516 8.28 17.2676 7.048 17.6996 5.976C18.1316 4.904 18.7236 4 19.4756 3.264C20.2276 2.512 21.1076 1.944 22.1156 1.56C23.1396 1.176 24.2276 0.983999 25.3796 0.983999C26.1636 0.983999 26.8676 1.04 27.4916 1.152C28.1316 1.248 28.6756 1.368 29.1236 1.512C29.5876 1.64 29.9636 1.776 30.2516 1.92C30.5556 2.064 30.7716 2.176 30.8996 2.256L29.8196 5.256C29.3076 4.984 28.7156 4.752 28.0436 4.56C27.3876 4.352 26.6676 4.248 25.8836 4.248ZM39.6151 1.176C42.0951 1.176 43.9991 1.616 45.3271 2.496C46.6551 3.36 47.3191 4.784 47.3191 6.768C47.3191 8.768 46.6471 10.216 45.3031 11.112C43.9591 11.992 42.0391 12.432 39.5431 12.432H38.3671V18H34.6231V1.608C35.4391 1.448 36.3031 1.336 37.2151 1.272C38.1271 1.208 38.9271 1.176 39.6151 1.176ZM39.8551 4.368C39.5831 4.368 39.3111 4.376 39.0391 4.392C38.7831 4.408 38.5591 4.424 38.3671 4.44V9.24H39.5431C40.8391 9.24 41.8151 9.064 42.4711 8.712C43.1271 8.36 43.4551 7.704 43.4551 6.744C43.4551 6.28 43.3671 5.896 43.1911 5.592C43.0311 5.288 42.7911 5.048 42.4711 4.872C42.1671 4.68 41.7911 4.552 41.3431 4.488C40.8951 4.408 40.3991 4.368 39.8551 4.368Z" fill="white"/>
<path d="M53.3324 16.104C53.3324 16.824 53.1004 17.376 52.6364 17.76C52.1884 18.128 51.6764 18.312 51.1004 18.312C50.5244 18.312 50.0044 18.128 49.5404 17.76C49.0924 17.376 48.8684 16.824 48.8684 16.104C48.8684 15.384 49.0924 14.84 49.5404 14.472C50.0044 14.088 50.5244 13.896 51.1004 13.896C51.6764 13.896 52.1884 14.088 52.6364 14.472C53.1004 14.84 53.3324 15.384 53.3324 16.104Z" fill="#F29C9B"/>
</svg>
