<svg width="52" height="7" viewBox="0 0 52 7" fill="none" xmlns="http://www.w3.org/2000/svg">
<path fill-rule="evenodd" clip-rule="evenodd" d="M2.9033 0.0340598C-0.00981662 0.168223 -0.339617 0.356025 0.484851 1.34883C1.39176 2.44897 3.28805 2.71737 18.0185 3.17353C1.00703 3.49552 -0.559488 3.87112 0.127568 5.13225C1.007 6.71538 6.64086 6.55438 34.0681 6.60805C42.2853 6.63488 46.8474 7.09101 49.1834 6.98368C52.4263 6.82268 51.6293 5.58844 50.2827 5.02495L51.0247 4.89079C52.9759 4.54196 51.7942 2.34172 49.2933 1.69773C47.0948 1.13425 34.4529 0.543879 22.2783 0.436549C6.17369 0.329218 6.22865 -0.126936 2.9033 0.0340598Z" fill="#F29C9B"/>
</svg>
